<?xml version="1.0" encoding="utf-8"?>
<!-- Generator: Adobe Illustrator 22.1.0, SVG Export Plug-In . SVG Version: 6.00 Build 0)  -->
<svg version="1.1" id="Layer_1" xmlns="http://www.w3.org/2000/svg" xmlns:xlink="http://www.w3.org/1999/xlink" x="0px" y="0px"
	 viewBox="0 0 841.9 595.3" style="enable-background:new 0 0 841.9 595.3;" xml:space="preserve">
<style type="text/css">
	.st0{fill:#563D7C;}
	.st1{enable-background:new    ;}
	.st2{fill:#FFFFFF;}
</style>
<g>
	
		<g id="solid" inkscape:version="0.48.1 r9760" sodipodi:docname="twitter_bootstrap_logo.svg" xmlns:cc="http://creativecommons.org/ns#" xmlns:dc="http://purl.org/dc/elements/1.1/" xmlns:inkscape="http://www.inkscape.org/namespaces/inkscape" xmlns:rdf="http://www.w3.org/1999/02/22-rdf-syntax-ns#" xmlns:sodipodi="http://sodipodi.sourceforge.net/DTD/sodipodi-0.dtd" xmlns:svg="http://www.w3.org/2000/svg">
		<path id="bg" class="st0" d="M301.1,338.7c0,10.6-8.7,19.4-19.4,19.4h-77.4c-10.6,0-19.4-8.7-19.4-19.4v-77.4
			c0-10.6,8.7-19.4,19.4-19.4h77.4c10.6,0,19.4,8.7,19.4,19.4V338.7z"/>
		<g id="B" class="st1">
			<path class="st2" d="M216.5,267.1h32.9c6.1,0,11,1.4,14.6,4.2s5.5,7,5.5,12.6c0,3.4-0.8,6.3-2.5,8.8c-1.7,2.4-4.1,4.3-7.2,5.7
				v0.2c4.2,0.9,7.3,2.9,9.5,5.9c2.1,3.1,3.2,6.9,3.2,11.5c0,2.7-0.5,5.1-1.4,7.4c-0.9,2.3-2.4,4.3-4.5,6c-2,1.7-4.6,3-7.8,4
				c-3.2,1-6.9,1.5-11.3,1.5h-31.1V267.1L216.5,267.1z M228.4,295.5h19.4c2.8,0,5.2-0.8,7.1-2.4c1.9-1.6,2.8-3.9,2.8-7
				c0-3.4-0.9-5.8-2.6-7.2c-1.7-1.4-4.2-2.1-7.4-2.1h-19.4V295.5L228.4,295.5z M228.4,325.2h21c3.6,0,6.4-0.9,8.4-2.8
				c2-1.9,3-4.5,3-7.9c0-3.4-1-5.9-3-7.7c-2-1.8-4.8-2.7-8.4-2.7h-21V325.2z"/>
		</g>
	</g>
	<g>
		<path class="st0" d="M326.5,325.6v-54.5h20.4c4.2,0,7.5,0.6,10,1.7c2.5,1.1,4.5,2.8,5.9,5.1c1.4,2.3,2.1,4.7,2.1,7.2
			c0,2.3-0.6,4.5-1.9,6.6c-1.3,2.1-3.2,3.7-5.7,5c3.3,1,5.8,2.6,7.6,4.9c1.8,2.3,2.7,5.1,2.7,8.3c0,2.6-0.5,4.9-1.6,7.1
			c-1.1,2.2-2.4,3.9-4,5.1c-1.6,1.2-3.6,2.1-6,2.7c-2.4,0.6-5.3,0.9-8.8,0.9H326.5z M333.7,294h11.8c3.2,0,5.5-0.2,6.9-0.6
			c1.8-0.5,3.2-1.4,4.1-2.7c0.9-1.3,1.4-2.8,1.4-4.8c0-1.8-0.4-3.4-1.3-4.8c-0.9-1.4-2.1-2.3-3.7-2.8c-1.6-0.5-4.4-0.8-8.3-0.8
			h-10.9V294z M333.7,319.2h13.6c2.3,0,4-0.1,4.9-0.3c1.7-0.3,3-0.8,4.2-1.5c1.1-0.7,2-1.7,2.8-3c0.7-1.3,1.1-2.9,1.1-4.6
			c0-2-0.5-3.8-1.6-5.3c-1-1.5-2.5-2.6-4.3-3.2c-1.8-0.6-4.5-0.9-8-0.9h-12.6V319.2z"/>
		<path class="st0" d="M374.2,305.9c0-7.3,2-12.7,6.1-16.2c3.4-2.9,7.5-4.4,12.4-4.4c5.4,0,9.9,1.8,13.3,5.3
			c3.4,3.6,5.2,8.5,5.2,14.7c0,5.1-0.8,9.1-2.3,12c-1.5,2.9-3.7,5.2-6.7,6.8c-2.9,1.6-6.1,2.4-9.5,2.4c-5.5,0-10-1.8-13.4-5.3
			C375.9,317.6,374.2,312.5,374.2,305.9z M381.1,305.9c0,5.1,1.1,8.8,3.3,11.4c2.2,2.5,5,3.8,8.3,3.8c3.3,0,6.1-1.3,8.3-3.8
			c2.2-2.5,3.3-6.4,3.3-11.6c0-4.9-1.1-8.6-3.3-11.1c-2.2-2.5-5-3.8-8.3-3.8c-3.3,0-6.1,1.3-8.3,3.8
			C382.2,297,381.1,300.8,381.1,305.9z"/>
		<path class="st0" d="M416.6,305.9c0-7.3,2-12.7,6.1-16.2c3.4-2.9,7.5-4.4,12.4-4.4c5.4,0,9.9,1.8,13.3,5.3
			c3.4,3.6,5.2,8.5,5.2,14.7c0,5.1-0.8,9.1-2.3,12c-1.5,2.9-3.7,5.2-6.7,6.8c-2.9,1.6-6.1,2.4-9.5,2.4c-5.5,0-10-1.8-13.4-5.3
			C418.3,317.6,416.6,312.5,416.6,305.9z M423.4,305.9c0,5.1,1.1,8.8,3.3,11.4c2.2,2.5,5,3.8,8.3,3.8c3.3,0,6.1-1.3,8.3-3.8
			c2.2-2.5,3.3-6.4,3.3-11.6c0-4.9-1.1-8.6-3.3-11.1c-2.2-2.5-5-3.8-8.3-3.8c-3.3,0-6.1,1.3-8.3,3.8
			C424.5,297,423.4,300.8,423.4,305.9z"/>
		<path class="st0" d="M476,319.6l1,5.9c-1.9,0.4-3.6,0.6-5.1,0.6c-2.4,0-4.3-0.4-5.7-1.2c-1.3-0.8-2.3-1.8-2.8-3
			c-0.5-1.3-0.8-3.9-0.8-7.9v-22.7h-4.9v-5.2h4.9v-9.8l6.7-4v13.8h6.7v5.2h-6.7v23.1c0,1.9,0.1,3.1,0.4,3.7c0.2,0.5,0.6,1,1.2,1.3
			c0.5,0.3,1.3,0.5,2.3,0.5C473.8,319.9,474.8,319.8,476,319.6z"/>
		<path class="st0" d="M479.9,313.8l6.6-1c0.4,2.7,1.4,4.7,3.1,6.1c1.7,1.4,4.1,2.1,7.1,2.1c3.1,0,5.4-0.6,6.8-1.9
			c1.5-1.3,2.2-2.7,2.2-4.4c0-1.5-0.7-2.7-2-3.6c-0.9-0.6-3.2-1.4-6.8-2.3c-4.9-1.2-8.3-2.3-10.2-3.2c-1.9-0.9-3.3-2.2-4.3-3.8
			c-1-1.6-1.5-3.4-1.5-5.3c0-1.8,0.4-3.4,1.2-4.9c0.8-1.5,1.9-2.7,3.3-3.7c1-0.8,2.5-1.4,4.3-2c1.8-0.5,3.7-0.8,5.8-0.8
			c3.1,0,5.8,0.4,8.2,1.3c2.3,0.9,4.1,2.1,5.2,3.6c1.1,1.5,1.9,3.6,2.3,6.1l-6.5,0.9c-0.3-2-1.2-3.6-2.6-4.8c-1.4-1.1-3.4-1.7-6-1.7
			c-3.1,0-5.3,0.5-6.6,1.5c-1.3,1-2,2.2-2,3.6c0,0.9,0.3,1.6,0.8,2.3c0.5,0.7,1.4,1.3,2.6,1.8c0.7,0.2,2.6,0.8,5.9,1.7
			c4.7,1.3,8,2.3,9.9,3.1c1.9,0.8,3.3,2,4.4,3.5c1.1,1.5,1.6,3.4,1.6,5.7c0,2.2-0.7,4.3-2,6.3c-1.3,2-3.2,3.5-5.6,4.6
			c-2.5,1.1-5.2,1.6-8.3,1.6c-5.1,0-9-1.1-11.7-3.2C482.3,321.2,480.6,318,479.9,313.8z"/>
		<path class="st0" d="M535.2,319.6l1,5.9c-1.9,0.4-3.6,0.6-5.1,0.6c-2.4,0-4.3-0.4-5.7-1.2c-1.3-0.8-2.3-1.8-2.8-3
			c-0.5-1.3-0.8-3.9-0.8-7.9v-22.7h-4.9v-5.2h4.9v-9.8l6.7-4v13.8h6.7v5.2h-6.7v23.1c0,1.9,0.1,3.1,0.4,3.7c0.2,0.5,0.6,1,1.2,1.3
			c0.5,0.3,1.3,0.5,2.3,0.5C533,319.9,534,319.8,535.2,319.6z"/>
		<path class="st0" d="M541.7,325.6v-39.5h6v6c1.5-2.8,3-4.6,4.3-5.5c1.3-0.9,2.7-1.3,4.3-1.3c2.3,0,4.5,0.7,6.9,2.2l-2.3,6.2
			c-1.6-1-3.3-1.4-4.9-1.4c-1.5,0-2.8,0.4-3.9,1.3c-1.2,0.9-2,2.1-2.5,3.7c-0.7,2.4-1.1,5-1.1,7.8v20.7H541.7z"/>
		<path class="st0" d="M592.9,320.7c-2.5,2.1-4.9,3.6-7.2,4.5s-4.8,1.3-7.4,1.3c-4.3,0-7.7-1.1-10-3.2c-2.3-2.1-3.5-4.8-3.5-8.1
			c0-1.9,0.4-3.7,1.3-5.3c0.9-1.6,2-2.9,3.5-3.8c1.4-1,3-1.7,4.8-2.2c1.3-0.3,3.3-0.7,5.9-1c5.4-0.6,9.4-1.4,11.9-2.3
			c0-0.9,0-1.5,0-1.7c0-2.7-0.6-4.6-1.9-5.8c-1.7-1.5-4.3-2.3-7.6-2.3c-3.1,0-5.5,0.6-7,1.7c-1.5,1.1-2.6,3.1-3.3,5.9l-6.5-0.9
			c0.6-2.8,1.6-5.1,2.9-6.8c1.4-1.7,3.3-3,5.9-4c2.6-0.9,5.6-1.4,9-1.4c3.4,0,6.1,0.4,8.2,1.2c2.1,0.8,3.7,1.8,4.6,3
			c1,1.2,1.7,2.7,2.1,4.6c0.2,1.1,0.3,3.2,0.3,6.2v8.9c0,6.2,0.1,10.2,0.4,11.8c0.3,1.6,0.8,3.2,1.7,4.7h-7
			C593.5,324.2,593.1,322.6,592.9,320.7z M592.3,305.8c-2.4,1-6.1,1.8-10.9,2.5c-2.8,0.4-4.7,0.8-5.8,1.3c-1.1,0.5-2,1.2-2.6,2.2
			c-0.6,1-0.9,2-0.9,3.2c0,1.8,0.7,3.3,2,4.5c1.4,1.2,3.3,1.8,5.9,1.8c2.6,0,4.9-0.6,6.9-1.7c2-1.1,3.5-2.7,4.4-4.6
			c0.7-1.5,1.1-3.7,1.1-6.7V305.8z"/>
		<path class="st0" d="M609.4,340.7v-54.6h6.1v5.1c1.4-2,3.1-3.5,4.9-4.5c1.8-1,4-1.5,6.6-1.5c3.4,0,6.3,0.9,8.9,2.6
			c2.6,1.7,4.5,4.2,5.8,7.3c1.3,3.2,2,6.6,2,10.4c0,4-0.7,7.7-2.2,10.9c-1.5,3.2-3.6,5.7-6.3,7.4c-2.8,1.7-5.7,2.6-8.7,2.6
			c-2.2,0-4.2-0.5-6-1.4c-1.8-0.9-3.2-2.1-4.4-3.6v19.2H609.4z M615.5,306.1c0,5.1,1,8.8,3.1,11.3c2.1,2.4,4.5,3.6,7.5,3.6
			c3,0,5.5-1.3,7.6-3.8c2.1-2.5,3.2-6.4,3.2-11.7c0-5-1-8.8-3.1-11.3c-2.1-2.5-4.5-3.8-7.4-3.8c-2.8,0-5.4,1.3-7.6,4
			C616.6,297.1,615.5,301,615.5,306.1z"/>
	</g>
</g>
</svg>
