<?xml version="1.0" encoding="utf-8"?>
<!-- Generator: Adobe Illustrator 22.1.0, SVG Export Plug-In . SVG Version: 6.00 Build 0)  -->
<svg version="1.1" id="Layer_1" xmlns="http://www.w3.org/2000/svg" xmlns:xlink="http://www.w3.org/1999/xlink" x="0px" y="0px"
	 viewBox="0 0 841.9 595.3" style="enable-background:new 0 0 841.9 595.3;" xml:space="preserve">
<style type="text/css">
	.st0{fill:#2F2707;}
	.st1{fill:#DE4C36;}
</style>
<g>
	<path class="st0" d="M466.7,274.2c-9.3,0-16.3,4.6-16.3,15.6c0,8.3,4.6,14.1,15.8,14.1c9.5,0,15.9-5.6,15.9-14.4
		C482.1,279.5,476.3,274.2,466.7,274.2L466.7,274.2L466.7,274.2z M448,352c-2.2,2.7-4.4,5.6-4.4,9c0,6.8,8.6,8.8,20.5,8.8
		c9.8,0,23.2-0.7,23.2-9.8c0-5.4-6.4-5.8-14.6-6.3L448,352L448,352z M498.2,274.7c3,3.9,6.3,9.3,6.3,17.1
		c0,18.8-14.7,29.8-36.1,29.8c-5.4,0-10.3-0.7-13.4-1.5l-5.6,9l16.6,1c29.3,1.9,46.6,2.7,46.6,25.2c0,19.5-17.1,30.5-46.6,30.5
		c-30.7,0-42.4-7.8-42.4-21.2c0-7.6,3.4-11.7,9.3-17.3c-5.6-2.4-7.5-6.6-7.5-11.2c0-3.7,1.9-7.1,4.9-10.3c3-3.2,6.4-6.4,10.5-10.2
		c-8.3-4.1-14.6-12.9-14.6-25.4c0-19.5,12.9-32.9,38.8-32.9c7.3,0,11.7,0.7,15.6,1.7h33v14.4L498.2,274.7L498.2,274.7z"/>
	<path class="st0" d="M543.6,244c-9.7,0-15.3-5.6-15.3-15.3c0-9.6,5.6-14.9,15.3-14.9c9.8,0,15.4,5.3,15.4,14.9
		C559,238.4,553.4,244,543.6,244L543.6,244L543.6,244z M521.7,345.8v-13.4l8.6-1.2c2.4-0.3,2.7-0.8,2.7-3.4V278
		c0-1.9-0.5-3.1-2.2-3.6l-9.1-3.2l1.9-13.7h35.1v70.3c0,2.7,0.2,3.1,2.7,3.4l8.6,1.2v13.4H521.7L521.7,345.8z"/>
	<path class="st0" d="M637,339.2c-7.3,3.6-18,6.8-27.6,6.8c-20.2,0-27.8-8.1-27.8-27.3v-44.4c0-1,0-1.7-1.4-1.7h-11.9v-15.1
		c14.9-1.7,20.8-9.2,22.7-27.6h16.1V254c0,1.2,0,1.7,1.4,1.7h23.9v16.9h-25.2v40.5c0,10,2.4,13.9,11.5,13.9c4.8,0,9.7-1.2,13.7-2.7
		L637,339.2"/>
	<path class="st1" d="M386,294.7l-77.5-77.5c-4.5-4.5-11.7-4.5-16.2,0l-16.1,16.1l20.4,20.4c4.7-1.6,10.2-0.5,14,3.3
		c3.8,3.8,4.9,9.3,3.2,14l19.7,19.7c4.8-1.6,10.2-0.6,14,3.2c5.3,5.3,5.3,13.9,0,19.2c-5.3,5.3-13.9,5.3-19.2,0c-4-4-5-9.9-3-14.8
		L307,280.1l0,48.3c1.3,0.6,2.5,1.5,3.6,2.6c5.3,5.3,5.3,13.9,0,19.2c-5.3,5.3-13.9,5.3-19.2,0c-5.3-5.3-5.3-13.9,0-19.2
		c1.3-1.3,2.8-2.3,4.5-3v-48.7c-1.6-0.7-3.1-1.6-4.5-3c-4-4-5-9.9-2.9-14.9l-20.1-20.1l-53.1,53.1c-4.5,4.5-4.5,11.7,0,16.2
		l77.5,77.5c4.5,4.5,11.7,4.5,16.2,0l77.1-77.1C390.4,306.4,390.4,299.2,386,294.7"/>
</g>
</svg>
