<?xml version="1.0" encoding="utf-8"?>
<!-- Generator: Adobe Illustrator 22.1.0, SVG Export Plug-In . SVG Version: 6.00 Build 0)  -->
<svg version="1.1" id="Layer_1" xmlns="http://www.w3.org/2000/svg" xmlns:xlink="http://www.w3.org/1999/xlink" x="0px" y="0px"
	 viewBox="0 0 841.9 595.3" style="enable-background:new 0 0 841.9 595.3;" xml:space="preserve">
<style type="text/css">
	.st0{fill:#E44D26;}
	.st1{fill:#F16529;}
	.st2{fill:#EBEBEB;}
	.st3{fill:#FFFFFF;}
</style>
<g>
	<polygon class="st0" points="287.7,494.2 258,160.8 584.6,160.8 554.8,494.2 421.1,531.2 	"/>
	<polygon class="st1" points="421.3,502.9 529.4,472.9 554.8,188.1 421.3,188.1 	"/>
	<polygon class="st2" points="421.3,311.7 367.2,311.7 363.4,269.9 421.3,269.9 421.3,229 421.1,229 318.8,229 319.7,240 
		329.8,352.6 421.3,352.6 	"/>
	<polygon class="st2" points="421.3,417.9 421.1,418 375.6,405.7 372.7,373.1 350.5,373.1 331.6,373.1 337.3,437.3 421.1,460.5 
		421.3,460.5 	"/>
	<path d="M288.4,70.2h20.8v20.5h19V70.2h20.8v62.2h-20.8v-20.8h-19v20.8h-20.8L288.4,70.2L288.4,70.2z"/>
	<path d="M376.3,90.9H358V70.2h57.4v20.6H397v41.6h-20.8L376.3,90.9L376.3,90.9z"/>
	<path d="M424.4,70.2h21.7l13.3,21.8l13.3-21.8h21.7v62.2h-20.7v-30.8l-14.3,22.1h-0.4l-14.3-22.1v30.8h-20.3L424.4,70.2L424.4,70.2
		z"/>
	<path d="M504.8,70.2h20.8v41.6h29.2v20.5h-50V70.2z"/>
	<polygon class="st3" points="421.1,311.7 421.1,352.6 471.5,352.6 466.7,405.7 421.1,418 421.1,460.5 505,437.3 505.6,430.4 
		515.2,322.7 516.2,311.7 505.2,311.7 	"/>
	<polygon class="st3" points="421.1,229 421.1,254.4 421.1,269.8 421.1,269.9 519.8,269.9 519.8,269.9 519.9,269.9 520.7,260.7 
		522.6,240 523.6,229 	"/>
</g>
</svg>
