<?xml version="1.0" encoding="utf-8"?>
<!-- Generator: Adobe Illustrator 22.1.0, SVG Export Plug-In . SVG Version: 6.00 Build 0)  -->
<svg version="1.1" id="Layer_1" xmlns="http://www.w3.org/2000/svg" xmlns:xlink="http://www.w3.org/1999/xlink" x="0px" y="0px"
	 viewBox="0 0 841.9 595.3" style="enable-background:new 0 0 841.9 595.3;" xml:space="preserve">
<style type="text/css">
	.st0{fill:#E5A229;}
	.st1{fill:#F1BE21;}
	.st2{fill:#FFFFFF;}
	.st3{fill:#EBEAEA;}
	.st4{fill:#231F20;}
</style>
<g>
	<polygon class="st0" points="584,157.6 420.3,157.6 420.3,157.6 256.6,157.6 287.3,490.3 420.3,528 420.3,528 420.3,528 420.3,528 
		420.3,528 553.2,490.3 	"/>
	<polygon class="st1" points="420.3,184.7 420.3,499.8 420.3,499.8 528,469.3 554.2,184.7 	"/>
	<polygon class="st2" points="506,225.5 340.3,225.5 328.8,350.1 329.1,349.3 469.8,349.3 465.2,402 420.3,415 374.7,401.8 
		372,369.9 330.6,369.9 336.5,433.7 420.3,457.5 504,433.7 515.6,308.6 366.3,308.6 368.2,266.9 471.8,266.9 473.3,290.7 
		515.1,290.7 	"/>
	<g>
		<path class="st3" d="M420.3,225.5h-80l-11.5,124.6l0.2-0.8h91.2v-40.7H372l1.9-41.7h46.4V225.5z M372,369.9h-41.4l5.9,63.7
			l83.8,23.7V415l-45.6-13.1L372,369.9z"/>
	</g>
	<g>
		<polygon class="st4" points="388.4,108.5 359.3,108.5 359.3,129.4 388.4,129.4 404,129.4 409.3,129.4 409.3,67.3 388.4,67.3 		"/>
		<path class="st4" d="M481.3,67.6h-50.8c0,0,0,10.9,0,21.8c6.8,6.8,10.3,10,20.2,19.9c-5.7,0-20.2,0-20.2,0v19.8h50.8v-19.9
			L461,89.3h20.3V67.6z"/>
	</g>
</g>
</svg>
